<svg width="100" height="96" viewBox="0 0 100 96" fill="none" xmlns="http://www.w3.org/2000/svg" class="w-[4.125rem] h-auto lg:w-[6.25rem]"><path fill-rule="evenodd" clip-rule="evenodd" d="M99.6874 80.2288C99.6874 79.0473 99.8595 77.8689 99.9564 76.6623C99.9314 76.2205 99.9314 75.7754 99.8595 75.3085C99.7875 74.7914 99.5404 74.5219 99.1713 74.4717C98.7771 74.3965 98.3861 74.619 98.189 75.086C98.017 75.5028 97.895 75.9478 97.8449 76.3897C97.5978 79.2666 97.6479 82.1718 97.7949 85.0487C97.8919 86.7943 98.0889 88.565 97.8449 90.3137C97.7949 90.7306 97.8199 91.2007 97.9169 91.6175C97.9669 91.8619 98.2359 92.1596 98.458 92.2317C99.0712 92.4291 100.028 92.0343 99.9564 91.0502C99.8813 89.8437 99.8094 88.6402 99.7593 87.4337C99.7343 85.0487 99.6624 82.6356 99.6843 80.2256M97.1849 89.7998C97.407 89.5553 97.407 89.1354 97.0879 88.6935C96.3278 87.6123 96.1307 86.4308 96.2777 85.102C96.3528 84.5849 96.3747 84.0208 96.2527 83.5288C96.1808 83.159 96.1057 82.8393 96.1808 82.4476C96.3778 81.4384 95.7397 80.6268 94.7794 80.6769C94.3383 80.702 93.8941 80.8242 93.5031 81.0216C90.7284 82.4006 88.5419 84.516 86.7995 87.1453C86.1614 88.1294 85.3512 88.7938 84.3189 89.1636C83.4837 89.4582 82.6485 89.5083 81.8633 88.9912C81.4473 88.7217 81.2001 88.3268 81.2001 87.7627C81.4222 87.7126 81.5943 87.6875 81.7632 87.6405C83.8028 86.904 85.2761 85.475 86.3553 83.557C86.6243 83.09 86.7964 82.5228 86.8965 81.9838C87.1655 80.4826 86.2834 79.5487 84.8569 79.8433C84.4628 79.9185 84.0718 80.0407 83.7027 80.2382C81.5912 81.4196 80.1429 83.2405 79.4547 85.6755C79.2826 86.2898 79.0386 86.7818 78.4224 87.0294C78.0783 87.1516 78.1033 87.4243 78.2754 87.6687C78.3723 87.7909 78.4975 87.9382 78.6445 87.9884C79.0855 88.1607 79.2826 88.4804 79.4547 88.9223C80.1429 90.718 81.5411 91.5548 83.3586 91.1599C84.1688 90.9625 84.9539 90.5457 85.7391 90.226C85.8611 90.1759 85.9862 90.1038 86.0832 90.0286C86.8933 91.0878 87.7035 91.3072 88.8578 90.8402C90.084 90.3482 91.1914 89.5867 92.1736 88.6496C92.8868 87.9602 93.5969 87.2237 94.3101 86.4841C94.5322 87.1735 94.7043 87.8379 94.9483 88.4773C95.1704 89.0445 95.4644 89.5585 96.0056 89.8562C96.4467 90.1006 96.9378 90.0536 97.1849 89.8061M81.1751 85.7413C81.2721 85.4468 81.3222 85.2493 81.4223 85.0519C82.0854 83.698 82.9926 82.5917 84.272 81.8302C84.516 81.6829 84.8851 81.4134 85.1072 81.733C85.2292 81.9054 85.1572 82.3724 85.0321 82.6199C84.2939 84.1211 83.1427 85.1302 81.6193 85.6442C81.4973 85.6943 81.3753 85.6943 81.1783 85.7413M93.428 84.3123C93.55 84.3875 93.672 84.4596 93.7721 84.5348C93.453 85.8886 89.6461 88.963 88.4918 88.8157C88.2478 87.7094 91.9296 83.2311 93.55 82.9365C93.428 83.1809 93.3529 83.3533 93.256 83.5256C93.0088 83.9425 93.0339 84.0177 93.428 84.3123ZM81.0531 80.4763C81.0031 79.7869 80.415 79.345 79.7518 79.4923C78.8916 79.6897 78.1815 80.1567 77.6654 80.9433C77.4683 81.263 77.2712 81.6077 77.0523 81.9775C77.1023 81.3883 76.9553 81.0906 76.5862 80.9182C76.217 80.7208 75.776 80.796 75.507 81.1157C75.3099 81.3382 75.1378 81.5826 75.0659 81.8521C74.8939 82.5416 74.6968 83.253 74.6968 83.9425C74.7468 85.9607 74.8688 87.9758 74.9908 89.9941C75.0409 90.8559 75.507 91.1505 76.2921 90.928C76.9052 90.7556 77.2493 90.2887 77.2243 89.5992C77.1993 88.6402 77.1273 87.6812 77.1524 86.7442C77.1774 85.663 77.3494 84.6037 77.7404 83.5946C78.1565 82.5385 78.8197 81.7487 79.877 81.404C80.171 81.3068 80.44 81.1815 80.7372 81.0843C80.9843 80.9872 81.0563 80.7647 81.0563 80.4701M59.297 78.0663C59.15 78.4612 59.297 78.9031 59.7381 79.1726C60.0071 79.345 60.3043 79.4202 60.5983 79.5424C61.2615 79.4672 61.6775 79.0755 61.5805 78.5333C61.4804 77.9661 60.9424 77.402 60.4012 77.3267C59.9602 77.2766 59.4691 77.5963 59.297 78.0632M75.8229 74.4247C75.6008 74.2774 75.3068 74.2273 75.0377 74.2022C74.7906 74.1771 74.5717 74.2774 74.3245 74.2774C72.3601 74.3996 70.3956 74.5219 68.4311 74.6472C67.9901 74.6723 67.5459 74.6974 67.1048 74.7224C67.1549 74.2806 67.2018 73.8606 67.2268 73.4689C67.2769 72.7794 67.0047 72.3375 66.5386 72.2404C66.0225 72.1181 65.6315 72.3877 65.3843 73.027C65.3343 73.1492 65.3093 73.2495 65.2842 73.3717C65.1873 73.8387 65.1122 74.3307 65.0152 74.8478C64.8181 74.8729 64.5742 74.8979 64.3521 74.8979C63.0758 74.9732 61.8214 75.0452 60.5451 75.1455C60.2261 75.1706 59.882 75.2928 59.6129 75.4652C59.1719 75.7598 59.1938 76.2769 59.6129 76.5965C59.76 76.7188 59.957 76.819 60.1291 76.819C60.6202 76.819 61.1363 76.7689 61.6275 76.6968C62.6597 76.5746 63.6889 76.4492 64.7712 76.3019C64.7462 76.5715 64.7212 76.7438 64.6993 76.9162C64.4303 79.0567 64.1581 81.1721 63.8891 83.3125C63.692 84.8388 63.495 86.3869 63.276 87.9132C63.2009 88.33 63.0539 88.7499 62.8599 89.1197C62.6378 89.5616 62.2969 89.5616 62.0498 89.1448C61.9997 89.0476 61.9528 88.9474 61.9027 88.8502C61.4116 87.7189 61.2396 86.4903 61.1645 85.2587C61.1395 84.7667 61.2865 84.422 61.6556 84.1023C61.8527 83.955 62.0247 83.6353 62.0247 83.4128C61.9747 82.3536 61.5086 81.4949 60.6984 80.8806C60.2073 80.5108 59.6911 80.6832 59.4941 81.2504C59.3471 81.6202 59.272 82.037 59.247 82.4319C59.125 84.0553 59.2219 85.6787 59.4941 87.302C59.6911 88.4835 60.0102 89.64 60.6984 90.624C61.5586 91.8525 62.5159 91.8525 63.204 90.5269C63.6701 89.6399 64.0142 88.681 64.2613 87.6969C64.5804 86.3431 64.7525 84.9673 64.9965 83.5883C64.9714 83.8328 64.9714 84.1054 64.9714 84.375C65.0215 87.277 65.2655 90.1571 66.0506 92.9588C66.2227 93.573 66.5167 94.1654 66.7889 94.7545C66.9359 95.0742 67.2049 95.2967 67.5991 95.1494C67.9682 95.0272 68.2372 94.6574 68.2372 94.2406C68.2372 93.971 68.1652 93.6733 68.0902 93.4038C67.8212 92.3947 67.4771 91.4106 67.255 90.3796C66.8139 88.4867 66.7138 86.5405 66.6919 84.6225C66.6418 81.8427 66.7169 79.0629 66.939 76.233C67.086 76.233 67.208 76.2079 67.3332 76.2079C69.5448 76.1327 71.7282 76.0857 73.9366 75.9854C74.5247 75.9603 75.166 75.8632 75.7291 75.6658C76.2921 75.5435 76.3422 74.8039 75.826 74.4341M52.7404 87.3146C52.8624 87.02 52.9125 86.7473 52.6654 86.5029C52.4183 86.2804 52.1242 86.2334 51.8552 86.4057C51.6581 86.528 51.461 86.7003 51.314 86.8978C50.8229 87.5872 50.2567 88.2265 49.5466 88.6684C48.5394 89.2827 47.5102 89.6274 46.3528 89.1605C45.7866 88.9129 45.4457 88.4961 45.3956 87.7815C45.6177 87.7314 45.8116 87.7063 45.9837 87.6342C47.9982 86.9197 49.4716 85.4938 50.5257 83.6009C50.7948 83.1088 50.9918 82.5197 51.0888 81.9524C51.3578 80.4763 50.4507 79.5675 49.0743 79.837C48.6801 79.9122 48.2891 80.0345 47.92 80.2319C45.8085 81.4134 44.3852 83.2091 43.647 85.6191C43.55 85.9137 43.4749 86.2334 43.3029 86.5029C43.0558 86.8978 42.8118 86.9197 42.4426 86.6753C41.6074 86.1331 40.7973 85.616 39.962 85.102C39.643 84.9046 39.3239 84.7071 38.9047 84.4376C39.0267 84.3624 39.1018 84.3405 39.1487 84.2903C40.425 83.1841 41.6544 82.0527 42.9557 80.9934C43.4718 80.5516 43.5688 80.0345 43.4968 79.4202C43.4218 78.853 43.1027 78.6587 42.6366 78.9282C42.2425 79.1507 41.8984 79.4453 41.5574 79.7399C40.8192 80.4043 40.1091 81.0937 39.3458 81.733C38.9047 82.1279 38.4386 82.4476 37.9444 82.7672C37.6504 82.9647 37.5284 82.8895 37.5503 82.5197C37.5753 81.9775 37.6003 81.4385 37.6723 80.9214C37.8693 79.6176 38.1383 78.3139 38.3604 76.9851C38.4574 76.3709 38.4824 75.7316 38.1884 75.1392C38.0414 74.8697 37.8443 74.6723 37.5503 74.8917C36.9121 75.3336 36.396 75.9008 36.274 76.7595C36.1989 77.4239 36.152 78.0632 36.0769 78.7276C35.9299 80.0313 35.7328 81.335 35.6609 82.6638C35.5639 84.4094 35.5389 86.1801 35.4888 87.9539C35.4888 88.1012 35.4638 88.2485 35.4388 88.471C35.3418 88.3488 35.3168 88.2986 35.2918 88.2485C34.6786 87.3365 34.6036 86.3055 34.7037 85.2462C34.7537 84.657 34.8257 84.0647 34.7037 83.5006C34.6067 83.1057 34.5566 82.761 34.6286 82.3442C34.8006 81.3601 34.1625 80.5735 33.2053 80.6236C32.7642 80.6487 32.3232 80.7709 31.929 80.9684C29.0324 82.4194 26.7707 84.657 25.0033 87.4619C24.9283 87.5841 24.8563 87.7314 24.7593 87.9539C24.7343 87.7314 24.6843 87.6593 24.6843 87.559C24.6342 85.9858 24.5873 84.3843 24.5122 82.8111C24.4872 82.1718 24.4622 81.5325 24.3402 80.9433C24.1431 80.0094 23.4799 79.7117 22.7198 80.2068C22.1786 80.5766 21.6875 81.0185 21.2465 81.5356C19.9702 83.0368 19.0599 84.7824 18.2028 86.5781C17.9338 87.1453 17.6616 87.7345 17.3676 88.3738C17.3175 88.2015 17.2925 88.1043 17.2925 88.004C17.2425 86.7975 17.1955 85.594 17.1205 84.3875C17.0704 83.3282 17.0485 82.247 16.6544 81.2629C16.3103 80.376 15.6471 80.2037 15.034 80.8931C14.6649 81.31 14.3208 81.7769 14.1018 82.294C13.5356 83.6949 13.0695 85.1459 12.5565 86.575C12.4814 86.7724 12.4095 86.9918 12.3094 87.1641C12.1624 87.4337 11.9653 87.4086 11.8683 87.1391C11.7714 86.8445 11.7213 86.4998 11.6963 86.2052C11.6713 84.9767 11.6963 83.745 11.6963 82.5416C11.6963 82.0496 11.5743 81.5826 11.1551 81.2629C11.0581 81.1877 10.8861 81.1157 10.786 81.1407C10.0978 81.263 9.55664 81.78 9.55664 82.5165C9.55664 84.0177 9.58167 85.5188 9.67864 87.02C9.75371 88.0542 9.92263 89.1103 10.1698 90.1194C10.4888 91.326 11.7401 91.6457 12.5753 90.7588C12.8944 90.4391 13.1634 90.0192 13.3135 89.6023C13.6826 88.471 13.9517 87.2895 14.2707 86.1331C14.3458 85.8385 14.4178 85.5658 14.5179 85.2713C14.5679 85.1741 14.6649 85.0738 14.7618 84.9767C14.8369 85.0738 14.9589 85.149 14.9839 85.2713C15.059 85.5157 15.1059 85.7884 15.131 86.0579C15.253 87.1892 15.328 88.3456 15.5251 89.4519C15.6471 90.0912 15.8942 90.7306 16.2133 91.2477C16.7294 92.0594 17.5646 91.9622 18.0307 91.1254C18.0808 91.0283 18.1277 90.9029 18.1778 90.8058C18.4968 90.0442 18.7659 89.2576 19.1099 88.4929C19.7481 87.0169 20.4112 85.5408 21.0744 84.0898C21.2715 83.6949 21.5655 83.3282 21.8596 83.0086C22.1286 82.714 22.3507 82.8111 22.4007 83.206C22.4508 83.5006 22.4508 83.7952 22.4508 84.0929C22.4508 85.9858 22.5978 87.8818 22.992 89.7496C23.164 90.5112 23.3861 91.2759 23.6051 92.0374C23.702 92.3821 23.9492 92.6517 24.3183 92.6517C25.0565 92.6517 25.5695 92.1596 25.6196 91.3981C25.6196 91.2508 25.5946 91.0784 25.5946 90.9311C26.5768 91.0784 26.8239 91.0534 27.7811 90.5864C28.1252 90.414 28.4693 90.2417 28.7884 90.0192C30.0897 89.2325 31.122 88.1263 32.1761 87.0169C32.3732 86.8194 32.5703 86.622 32.7423 86.4747C33.0614 87.3114 33.3054 88.1482 33.6745 88.9348C34.0186 89.6713 34.5817 90.0912 35.4169 89.9189V90.6083C35.4419 90.9029 35.4419 91.2226 35.5138 91.5172C35.5889 91.887 35.7829 92.2066 36.152 92.2317C36.5211 92.2568 36.9371 92.1565 37.1342 91.7397C37.2812 91.42 37.4032 91.0502 37.4283 90.7055C37.4533 89.9189 37.4032 89.1323 37.4032 88.3206C37.4032 87.7533 37.4533 87.2143 37.4783 86.6C37.7004 86.6753 37.8474 86.6972 37.9945 86.7724C39.4428 87.5841 40.9662 88.3206 42.2424 89.43C42.6616 89.7747 43.1027 90.1194 43.5438 90.414C43.7877 90.5864 44.0849 90.6585 44.379 90.4642C44.576 90.342 44.7481 90.367 44.9201 90.5394C45.4832 91.0063 46.1245 91.2289 46.8345 91.2038C48.505 91.1536 49.8782 90.367 51.1576 89.3109C51.7957 88.8189 52.3619 88.1545 52.7279 87.3177M31.7695 84.2402C31.9165 84.3373 32.0635 84.4376 32.2105 84.5348C31.7695 85.9607 28.0126 88.963 26.9052 88.7907C26.7582 87.512 30.5151 83.0838 31.9884 82.9365C31.8665 83.1809 31.7914 83.3784 31.6694 83.5507C31.4223 83.8453 31.4973 84.0678 31.7663 84.2402M45.3987 85.7413C45.4488 85.569 45.4738 85.4468 45.5207 85.3245C46.1589 83.8234 47.1411 82.667 48.4925 81.8553C48.7364 81.708 49.1056 81.4385 49.3277 81.7581C49.4497 81.9305 49.3777 82.3974 49.2526 82.645C48.5143 84.1211 47.3851 85.1302 45.8898 85.6473C45.7428 85.6975 45.5958 85.6975 45.3987 85.7445" fill="#F78C2A"></path><path fill-rule="evenodd" clip-rule="evenodd" d="M26.0888 68.5204C32.4201 68.5204 38.2384 66.2546 42.7554 62.4657C38.2885 58.6987 32.5202 56.4109 26.2389 56.4109C19.9577 56.4109 14.0643 58.7488 9.57227 62.5879C14.0643 66.3048 19.8075 68.5204 26.0919 68.5204" fill="#F78C2A"></path><path fill-rule="evenodd" clip-rule="evenodd" d="M16.6479 52.6785C13.8733 50.1181 12.1059 46.4514 12.1059 42.3678C12.1059 34.6396 18.3684 28.3654 26.0761 28.3654C33.7838 28.3654 40.0463 34.6396 40.0463 42.3678C40.0463 46.4043 38.3258 50.046 35.6012 52.6064C39.6271 53.885 43.3121 56.0036 46.4527 58.7082C50.0375 54.2298 52.1741 48.5448 52.1741 42.3678C52.1741 27.9236 40.4874 16.2089 26.073 16.2089C11.6867 16.234 0 27.9455 0 42.3678C0 48.62 2.18656 54.3771 5.84334 58.8555C8.96209 56.1227 12.6189 54.0073 16.6479 52.6785Z" fill="#860063"></path><path d="M100 18.1266H88.1006V66.2638H100V18.1266Z" fill="#860063"></path><path fill-rule="evenodd" clip-rule="evenodd" d="M72.3317 0C65.7533 0 60.4261 5.33709 60.4261 11.9309V18.1047H51.5391V28.0174H60.4261V66.267H72.3317V28.0174H82.6421V18.1047H72.3317V14.5132C72.3317 13.0873 73.486 11.9309 74.9093 11.9309H84.4595V0H72.3317Z" fill="#860063"></path><path d="M100 0H88.1006V11.9215H100V0Z" fill="#F78C2A"></path></svg>